<svg width="200" height="200" viewBox="0 0 200 200" fill="none" xmlns="http://www.w3.org/2000/svg">
<circle cx="100" cy="100" r="100" fill="#202020"/>
<path d="M100 200C155.228 200 200 155.228 200 100C200 89.4826 198.376 79.3445 195.366 69.8225C188.247 57.3669 180.956 69.6045 176.883 82.5974C164.589 124.329 132 191.584 100 126.753C75.5569 77.2321 33.2916 71.5389 2.53786 77.5154C0.87733 84.7426 0 92.2689 0 100C0 155.228 44.7715 200 100 200Z" fill="url(#paint0_linear_502_40)"/>
<path d="M100 200C155.228 200 200 155.228 200 100C200 83.2974 195.905 67.5511 188.664 53.7105C182.867 50.1564 177.365 60.3008 174.026 70.9529C161.732 112.684 129.143 179.94 97.1429 115.109C74.4303 69.0936 36.3298 60.9202 6.37541 64.7884C2.25437 75.7406 0 87.607 0 100C0 155.228 44.7715 200 100 200Z" fill="url(#paint1_linear_502_40)"/>
<path d="M100 200C155.228 200 200 155.228 200 100C200 95.2671 199.671 90.6109 199.035 86.0532C192.157 75.6691 185.23 87.5047 181.299 100.044C169.004 141.775 136.416 209.031 104.416 144.2C78.0879 90.8604 31.084 88.3679 0.0588185 96.5376C0.0197118 97.6869 0 98.8412 0 100C0 155.228 44.7715 200 100 200Z" fill="url(#paint2_linear_502_40)"/>
<defs>
<linearGradient id="paint0_linear_502_40" x1="160.779" y1="144.416" x2="257.662" y2="229.87" gradientUnits="userSpaceOnUse">
<stop stop-color="#484848"/>
<stop offset="1" stop-color="#101010" stop-opacity="0"/>
</linearGradient>
<linearGradient id="paint1_linear_502_40" x1="88.9563" y1="52.987" x2="88.9563" y2="222.641" gradientUnits="userSpaceOnUse">
<stop stop-color="#292929"/>
<stop offset="1" stop-color="#393939" stop-opacity="0"/>
</linearGradient>
<linearGradient id="paint2_linear_502_40" x1="96.229" y1="82.0779" x2="96.229" y2="251.732" gradientUnits="userSpaceOnUse">
<stop stop-color="#434343"/>
<stop offset="1" stop-color="#323232" stop-opacity="0"/>
</linearGradient>
</defs>
</svg>
