<svg width="200" height="200" viewBox="0 0 200 200" fill="none" xmlns="http://www.w3.org/2000/svg">
<circle cx="100" cy="100" r="100" fill="#171717"/>
<path d="M100 200C155.228 200 200 155.228 200 100C200 83.2973 195.905 67.5511 188.664 53.7105C182.867 50.1563 177.365 60.3007 174.026 70.9529C161.732 112.684 129.143 179.94 97.1429 115.109C74.4303 69.0936 36.3298 60.9202 6.37541 64.7884C2.25438 75.7406 0 87.607 0 100C0 155.228 44.7715 200 100 200Z" fill="#292929"/>
<path d="M100 200C155.228 200 200 155.228 200 100C200 89.4827 198.376 79.3447 195.366 69.8228C188.247 57.3667 180.956 69.6044 176.883 82.5974C164.589 124.329 132 191.584 100 126.753C75.5569 77.2321 33.2916 71.5389 2.53786 77.5154C0.877331 84.7426 0 92.2688 0 100C0 155.228 44.7715 200 100 200Z" fill="#242424"/>
<path d="M100 200C155.228 200 200 155.228 200 100C200 95.2671 199.671 90.611 199.035 86.0532C192.157 75.6691 185.23 87.5047 181.299 100.044C169.004 141.775 136.416 209.031 104.416 144.2C78.0879 90.8605 31.084 88.368 0.0588186 96.5376C0.0197119 97.6869 0 98.8412 0 100C0 155.228 44.7715 200 100 200Z" fill="#212121"/>
</svg>
